# xmcd
#
# Track frame offsets: 
#        150
#        18659
#        31401
#        47235
#        61235
#        81740
#        100171
#        104466
#        124450
#        137068
#        161253
#        179362
#        197480
#        211441
#
# Disc length: 3064 seconds
#
# Revision: 1
# Processed by: cddbd v1.5.2PL0 Copyright (c) Steve Scherf et al.
# Submitted via: ExactAudioCopy v0.90b4
#
DISCID=ca0bf60e
DTITLE=Benjy Ferree - Come Back to the Five and Dime Bobby Dee Bobby D
DTITLE=ee
DYEAR=2009
DGENRE=Indie
TTITLE0=Tired of Being Good
TTITLE1=Fear
TTITLE2=Big Business
TTITLE3=What Would Pecos Do?
TTITLE4=Blown Out (Gold Doubloons and Pcs of 8)
TTITLE5=The Grips
TTITLE6=Iris Flowers
TTITLE7=I Get No Love
TTITLE8=Come to Me, Coming to Me
TTITLE9=Whirlpool of Love
TTITLE10=Pisstopher Christopher
TTITLE11=When You're 16
TTITLE12=Great Scott!
TTITLE13=Zipperface Blues
EXTD=
EXTT0=
EXTT1=
EXTT2=
EXTT3=
EXTT4=
EXTT5=
EXTT6=
EXTT7=
EXTT8=
EXTT9=
EXTT10=
EXTT11=
EXTT12=
EXTT13=
PLAYORDER=
